<svg xmlns="http://www.w3.org/2000/svg" aria-hidden="true" style="position:absolute;width:0;height:0;overflow:hidden">
  <defs>
    <symbol id="icon-logo" viewBox="0 0 132 24">
      <path d="M4.98 13.28 0 5h2.98l3.34 5.74h.04L9.7 5h2.98L7.7 13.28V19H4.98zM12.67 16.7V7.3l2.3-2.3h7.2l2.3 2.3v9.4l-2.3 2.3h-7.2zm8.06-.02 1.02-1.02V8.34l-1.02-1.02h-4.32l-1.02 1.02v7.32l1.02 1.02zM26.374 16.6V5h2.72v10.66l1.02 1.02h3.92l1.02-1.02V5h2.72v11.6l-2.4 2.4h-6.6zM50.878 14.36V19h-2.72v-4.02l-1.2-1.34h-4.36V19h-2.72V5h8.78l2.14 2.16v4.24l-1.36 1.38zm-8.28-2.96h4.82l.7-.7V7.98l-.7-.7h-4.82zM57.823 5h10.12v2.3h-7.4v3.54h6.82v2.26h-6.82v3.6h7.4V19h-10.12zM69.452 5h2.44l6.24 9.5h.04V5h2.62v14h-2.44l-6.24-9.48h-.04V19h-2.62zM82.898 5h10.12v2.3h-7.4v3.54h6.82v2.26h-6.82v3.6h7.4V19h-10.12zM105.527 14.36V19h-2.72v-4.02l-1.2-1.34h-4.36V19h-2.72V5h8.78l2.14 2.16v4.24l-1.36 1.38zm-8.28-2.96h4.82l.7-.7V7.98l-.7-.7h-4.82zM107.323 16.7V7.3l2.3-2.3h6.96l2.26 2.26V9.4h-2.72V8.26l-.94-.94h-4.12l-1.02 1.02v7.32l1.02 1.02h4.16l.98-.98v-2.18h-3V11.2h5.64v5.5l-2.3 2.3h-6.92zM123.828 13.28 118.848 5h2.98l3.34 5.74h.04l3.34-5.74h2.98l-4.98 8.28V19h-2.72z"/>
    </symbol>
    <symbol id="icon-facebook" viewBox="0 0 32 32">
      <path d="M19.52 4.64h.96v3.6h-1.2c-.48 0-.96 0-1.2.24s-.24.48-.24 1.04v1.28h2.64v3.04h-2.64v13.2h-4.08V13.76H11.6v-3.04h2.16V9.68c0-1.76.24-3.04.72-3.6.72-1.04 2.16-1.52 4.32-1.52.24.08.48.08.72.08"/>
    </symbol>
    <symbol id="icon-instagram" viewBox="0 0 32 32">
      <path d="M28.717 10.756a9.3 9.3 0 0 0-.596-3.145 6.55 6.55 0 0 0-3.743-3.737 9.4 9.4 0 0 0-3.108-.596c-1.368-.061-1.801-.078-5.273-.078s-3.917 0-5.274.078a9.4 9.4 0 0 0-3.106.596 6.54 6.54 0 0 0-3.743 3.737 9.3 9.3 0 0 0-.596 3.101c-.061 1.367-.08 1.8-.08 5.265s0 3.909.08 5.265a9.3 9.3 0 0 0 .596 3.104 6.55 6.55 0 0 0 3.744 3.735 9.4 9.4 0 0 0 3.106.639c1.369.061 1.803.079 5.274.079s3.916 0 5.274-.079a9.4 9.4 0 0 0 3.108-.595 6.56 6.56 0 0 0 3.743-3.737 9.4 9.4 0 0 0 .596-3.104c.061-1.365.08-1.798.08-5.265-.003-3.466-.003-3.906-.082-5.264zM15.99 22.531c-3.631 0-6.572-2.936-6.572-6.561s2.941-6.561 6.572-6.561c3.628 0 6.572 2.936 6.572 6.561s-2.944 6.561-6.572 6.561m6.833-11.835a1.53 1.53 0 1 1 0-3.06 1.53 1.53 0 1 1 0 3.06"/>
      <path d="M15.992 19.976a4.004 4.004 0 1 0 0-8.009 4.004 4.004 0 0 0 0 8.009"/>
    </symbol>
    <symbol id="icon-youtube" viewBox="0 0 32 32">
      <path d="M24.24 6c-1.36-.08-4.16-.16-8.4-.16h-.56q-6.12 0-8.16.24c-1.84.16-3.12.64-3.84 1.28-.64.56-1.12 1.6-1.28 2.96-.08.88-.16 2.72-.16 5.52v.4c0 2.64.08 4.48.24 5.36.24 1.28.64 2.24 1.44 2.8q1.2.96 4.08 1.2c1.36.08 4.16.16 8.4.16h.56q6.12 0 8.16-.24c1.84-.16 3.12-.64 3.84-1.28.64-.56 1.12-1.6 1.28-2.96.08-.88.16-2.72.16-5.52v-.4c0-2.64-.08-4.48-.24-5.36-.24-1.28-.64-2.24-1.44-2.8q-1.2-.96-4.08-1.2m-3.12 9.84-8.8 5.28V10.56z"/>
    </symbol>
    <symbol id="icon-sun" viewBox="0 0 32 32">
      <path d="m14.254 13.505.363.372L10.151 1.08l5.321 12.466.018-.52.441-13.027.441 13.026.018.52 5.321-12.466-4.466 12.797 9.465-9.702-8.787 10.32 12.331-5.628-11.922 6.449 13.531-.793-13.446 1.707 12.904 4.148-13.155-3.266 10.534 8.53-11.087-7.798 6.741 11.759-7.521-11.276 2.038 13.4-2.94-13.232-2.94 13.232 2.038-13.4-7.521 11.276 6.741-11.759-11.087 7.798 10.534-8.53L.541 20.377l12.904-4.148-13.446-1.707 13.531.793L1.608 8.866l12.331 5.628-8.787-10.32zm.931.566-.646.4-.458.607-.208.731.07.757.339.68.562.512.709.275h.76l.709-.275.562-.512.339-.68.07-.757-.208-.731-.458-.607-.646-.4-.747-.14-.747.14z"/>
    </symbol>
    <symbol id="icon-search" viewBox="0 0 32 32">
      <path stroke-linecap="round" stroke-linejoin="round" stroke-width="2.667" d="M14.667 25.333c5.891 0 10.667-4.776 10.667-10.667S20.558 3.999 14.667 3.999 4 8.775 4 14.666s4.776 10.667 10.667 10.667M28 28l-5.8-5.8"/>
    </symbol>
    <symbol id="icon-running" viewBox="0 0 32 32">
      <path d="M29.647 9.451a1.185 1.185 0 0 0-1.667-.149l-3.282 2.757-1.509-3.739a1.2 1.2 0 0 0-.229-.362 3.22 3.22 0 0 0-1.582-1.617 3.2 3.2 0 0 0-.982-.262c-.073-.038-.139-.088-.222-.114l-5.775-1.61a1.2 1.2 0 0 0-.917.125 1.16 1.16 0 0 0-.719.672l-2.175 5.592a1.19 1.19 0 0 0 .676 1.534 1.187 1.187 0 0 0 1.532-.678l1.837-4.722 2.63.731c-.064.104-.133.201-.185.312l-3.372 7.309c-.049.107-.075.217-.109.328l-4.098 6.871-6.859 2.294a1.751 1.751 0 0 0 2.081 2.819l7.018-2.417c.215-.156.371-.36.489-.58.088-.094.189-.168.256-.284l2.443-4.096 4.337 3.696-4.641 5.23a1.75 1.75 0 1 0 2.622 2.32l5.791-6.524a1.7 1.7 0 0 0 .36-.676c.043-.132.043-.269.054-.406 0-.069.026-.132.021-.196a1.72 1.72 0 0 0-.601-1.274l-3.991-3.403c.288-.274.532-.6.709-.983l2.585-5.599.828 2.206c.035.196.1.388.239.549.125.149.284.248.454.317.017.009.038.01.059.016.107.038.216.075.329.08.133.012.269-.005.405-.043l.005-.002c.036-.009.073-.002.109-.017a1.2 1.2 0 0 0 .466-.34l4.71-3.998c.501-.421.289-1.166-.132-1.667zM23.69 6.602a3.301 3.301 0 1 0 0-6.602 3.301 3.301 0 0 0 0 6.602"/>
    </symbol>
    <symbol id="icon-inverted-commas" viewBox="0 0 32 32">
      <path d="M8.201 17.469q2.318-.919 3.719.481c1.401 1.4 1.21 2.421.831 4.463q-.437 2.275-1.925 3.5-1.444 1.18-3.369 1.181-2.625 0-3.631-2.013-1.006-2.056-.394-5.512.35-1.881 1.137-3.806c.787-1.925 1.225-2.596 2.1-3.938q1.313-2.013 3.413-3.5c2.1-1.487 2.946-1.633 4.637-1.925l-.437 4.638q-2.144.438-3.806 2.231-1.663 1.75-2.275 4.2m13.169 0q2.319-.919 3.719.481c1.4 1.4 1.21 2.421.831 4.463q-.437 2.275-1.925 3.5-1.444 1.18-3.369 1.181-2.625 0-3.631-2.013-1.006-2.056-.394-5.512.35-1.881 1.137-3.806c.787-1.925 1.225-2.596 2.1-3.938q1.313-2.013 3.413-3.5c2.1-1.487 2.946-1.633 4.637-1.925l-.437 4.638q-2.144.438-3.806 2.231-1.663 1.75-2.275 4.2"/>
    </symbol>
    <symbol id="icon-dumbbell" viewBox="0 0 32 32">
      <path d="M7.36 9.143H5.44c-.532 0-.96.459-.96 1.029v4.457h-.96c-.176 0-.32.154-.32.343v2.057c0 .188.144.343.32.343h.96v4.457c0 .57.428 1.028.96 1.028h1.92c.532 0 .96-.459.96-1.028V10.172c0-.57-.428-1.029-.96-1.029m21.12 5.486h-.96v-4.457c0-.57-.428-1.029-.96-1.029h-1.92c-.532 0-.96.459-.96 1.029v11.657c0 .57.428 1.028.96 1.028h1.92c.532 0 .96-.459.96-1.028v-4.457h.96c.176 0 .32-.154.32-.343v-2.057c0-.189-.144-.343-.32-.343M21.44 6.4h-1.92c-.532 0-.96.459-.96 1.029v7.2h-5.12v-7.2c0-.57-.428-1.029-.96-1.029h-1.92c-.532 0-.96.459-.96 1.029v17.143c0 .57.428 1.029.96 1.029h1.92c.532 0 .96-.459.96-1.029v-7.2h5.12v7.2c0 .57.428 1.029.96 1.029h1.92c.532 0 .96-.459.96-1.029V7.429c0-.57-.428-1.029-.96-1.029"/>
    </symbol>
    <symbol id="icon-heart" viewBox="0 0 32 32">
      <path stroke-linecap="round" stroke-linejoin="round" stroke-width="2.4" d="M27.787 6.147a7.35 7.35 0 0 0-5.187-2.15 7.33 7.33 0 0 0-5.187 2.15L16 7.56l-1.413-1.413a7.333 7.333 0 0 0-10.374 0 7.333 7.333 0 0 0 0 10.374L16 28.308l11.787-11.787a7.35 7.35 0 0 0 2.15-5.187 7.33 7.33 0 0 0-2.15-5.187"/>
    </symbol>
    <symbol id="icon-star" viewBox="0 0 32 32">
      <path d="M13.618 1.701c.737-2.268 3.945-2.268 4.682 0l2.08 6.402a2.46 2.46 0 0 0 2.341 1.701h6.731c2.384 0 3.376 3.051 1.447 4.453l-5.446 3.957a2.46 2.46 0 0 0-.894 2.752l2.08 6.402c.737 2.268-1.859 4.154-3.788 2.752l-5.446-3.957a2.46 2.46 0 0 0-2.894 0L9.065 30.12c-1.929 1.402-4.525-.484-3.788-2.752l2.08-6.402a2.46 2.46 0 0 0-.894-2.752l-5.446-3.957C-.912 12.855.079 9.804 2.464 9.804h6.731a2.46 2.46 0 0 0 2.341-1.701l2.08-6.402z"/>
    </symbol>
    <symbol id="icon-trash" viewBox="0 0 32 32">
      <path stroke-linecap="round" stroke-linejoin="round" stroke-width="2.4" d="M21.333 8V6.933c0-1.493 0-2.24-.291-2.811a2.67 2.67 0 0 0-1.165-1.165c-.57-.291-1.317-.291-2.811-.291h-2.133c-1.493 0-2.24 0-2.811.291-.502.256-.91.664-1.165 1.165-.291.57-.291 1.317-.291 2.811V8m2.667 7.333V22m5.334-6.667V22M4 8h24m-2.667 0v14.933c0 2.24 0 3.36-.436 4.216a4 4 0 0 1-1.748 1.748c-.856.436-1.976.436-4.216.436h-5.867c-2.24 0-3.36 0-4.216-.436a4 4 0 0 1-1.748-1.748c-.436-.856-.436-1.976-.436-4.216V8"/>
    </symbol>
    <symbol id="icon-close" viewBox="0 0 32 32">
      <path stroke-linecap="round" stroke-linejoin="round" stroke-width="2.667" d="M22.667 9.333 9.334 22.666M9.333 9.333l13.333 13.333"/>
    </symbol>
    <symbol id="icon-arrow" viewBox="0 0 32 32">
      <path stroke-width=".505" d="M16.586 7.284v17.198h-1.83V7.284l-8.599 8.599-1.294-1.294L15.671 3.781l10.808 10.808-1.294 1.294z"/>
    </symbol>
    <symbol id="icon-burger" viewBox="0 0 32 32">
      <path stroke-linecap="round" stroke-linejoin="round" stroke-width="2" d="M28 13.333H4M28 8H4M28 18.667H4M28 24H4"/>
    </symbol>
  </defs>
</svg>